<svg width="22" height="11" viewBox="0 0 22 11" fill="none" xmlns="http://www.w3.org/2000/svg">
<path fill-rule="evenodd" clip-rule="evenodd" d="M1.56095 0.101687C2.05722 -0.140712 2.65599 0.0650881 2.89834 0.561388C3.28644 1.35609 3.75926 2.08419 4.30163 2.73149C4.32943 2.76059 4.35513 2.79099 4.37874 2.82239C5.17012 3.74459 6.10462 4.49749 7.13684 5.03849C7.16411 5.04929 7.19113 5.06139 7.21785 5.07479C7.24882 5.09039 7.27863 5.10729 7.30725 5.12549C8.44451 5.69009 9.695 5.99989 11 5.99989C12.3048 5.99989 13.5553 5.69009 14.6926 5.12549C14.7213 5.10729 14.7511 5.09039 14.7821 5.07479C14.8089 5.06139 14.836 5.04929 14.8633 5.03849C15.8944 4.49799 16.828 3.74619 17.6189 2.82539C17.6439 2.79189 17.6713 2.75949 17.7011 2.72859C18.2425 2.08209 18.7145 1.35509 19.1021 0.561688C19.3446 0.0654875 19.9434 -0.140312 20.4396 0.102088C20.9358 0.344588 21.1416 0.943388 20.8991 1.43959C20.5708 2.11169 20.1878 2.74849 19.7563 3.34199L21.207 4.79279C21.5976 5.18339 21.5976 5.81649 21.207 6.20699C20.8165 6.59759 20.1834 6.59759 19.7928 6.20699L18.4483 4.86249C17.8674 5.43409 17.2321 5.94109 16.5514 6.37199L17.3938 8.05159C17.6414 8.54529 17.442 9.14619 16.9483 9.39379C16.4546 9.64139 15.8537 9.44189 15.6061 8.94829L14.7696 7.28039C13.8936 7.62709 12.9657 7.85689 12 7.95129V9.99989C12 10.5522 11.5523 10.9999 11 10.9999C10.4477 10.9999 10 10.5522 10 9.99989V7.95129C9.0343 7.85689 8.10635 7.62709 7.23037 7.28039L6.39387 8.94829C6.14628 9.44189 5.54536 9.64139 5.05168 9.39379C4.55801 9.14619 4.35853 8.54529 4.60612 8.05159L5.44854 6.37199C4.76785 5.94099 4.13262 5.43399 3.55173 4.86239L2.20711 6.20699C1.81658 6.59759 1.18342 6.59759 0.79289 6.20699C0.40237 5.81649 0.40237 5.18339 0.79289 4.79279L2.24393 3.34179C1.81245 2.74819 1.42947 2.11129 1.1012 1.43899C0.85884 0.942788 1.06468 0.343987 1.56095 0.101687Z" fill="#3C3B5F"/>
</svg>
