<svg width="24" height="24" viewBox="0 0 24 24" fill="none" xmlns="http://www.w3.org/2000/svg">
<path fill-rule="evenodd" clip-rule="evenodd" d="M5.61403 6.34903C7.51752 4.96903 9.78322 4 12.0005 4C14.2178 4 16.4832 4.96932 18.3863 6.34948C20.2964 7.73463 21.9433 9.6059 22.8985 11.5613C23.0338 11.8383 23.0338 12.1621 22.8985 12.4391C21.9433 14.3946 20.2962 16.2657 18.3859 17.6508C16.4826 19.0308 14.217 20 11.9998 20C9.78248 20 7.51693 19.0308 5.61362 17.6507C3.70344 16.2656 2.05637 14.3943 1.10141 12.4386C0.966197 12.1617 0.966197 11.8379 1.10141 11.561C2.0564 9.60523 3.70369 7.73401 5.61403 6.34903ZM3.12786 11.9998C3.94752 13.4726 5.25598 14.9209 6.78768 16.0316C8.4782 17.2574 10.3393 18 11.9998 18C13.6602 18 15.5213 17.2574 17.2119 16.0316C18.7436 14.921 20.0522 13.4729 20.8721 12.0002C20.0522 10.5275 18.7438 9.07922 17.2122 7.96856C15.5218 6.74267 13.6609 6 12.0005 6C10.3399 6 8.47864 6.74254 6.78795 7.96826C5.2561 9.07884 3.94752 10.527 3.12786 11.9998ZM12 10C10.8954 10 10 10.8954 10 12C10 13.1046 10.8954 14 12 14C13.1046 14 14 13.1046 14 12C14 10.8954 13.1046 10 12 10ZM8 12C8 9.79086 9.79086 8 12 8C14.2091 8 16 9.79086 16 12C16 14.2091 14.2091 16 12 16C9.79086 16 8 14.2091 8 12Z" fill="black"/>
</svg>
