<svg xmlns="http://www.w3.org/2000/svg" version="1.1" xmlns:xlink="http://www.w3.org/1999/xlink" xmlns:svgjs="http://svgjs.com/svgjs" width="1000" height="1000"><rect width="1000" height="1000" rx="200" ry="200" fill="#ffffff"></rect><g transform="matrix(8.000000640000051,0,0,8.000000640000051,99.99997189568927,215.6867622372406)"><svg xmlns="http://www.w3.org/2000/svg" version="1.1" xmlns:xlink="http://www.w3.org/1999/xlink" xmlns:svgjs="http://svgjs.com/svgjs" width="99.999992" height="71.0783"><svg width="99.999992" height="71.0783" viewBox="0 0 99.999992 71.078298" class="css-1j8o68f" version="1.1" id="svg19" sodipodi:docname="logo.svg" inkscape:version="1.2.1 (9c6d41e410, 2022-07-14)" xmlns:inkscape="http://www.inkscape.org/namespaces/inkscape" xmlns:sodipodi="http://sodipodi.sourceforge.net/DTD/sodipodi-0.dtd" xmlns="http://www.w3.org/2000/svg" xmlns:svg="http://www.w3.org/2000/svg">
  <sodipodi:namedview id="namedview21" pagecolor="#ffffff" bordercolor="#666666" borderopacity="1.0" inkscape:showpageshadow="2" inkscape:pageopacity="0.0" inkscape:pagecheckerboard="0" inkscape:deskcolor="#d1d1d1" showgrid="false" inkscape:zoom="3.3202813" inkscape:cx="155.25793" inkscape:cy="35.539158" inkscape:window-width="1920" inkscape:window-height="1131" inkscape:window-x="0" inkscape:window-y="32" inkscape:window-maximized="1" inkscape:current-layer="svg19"></sodipodi:namedview>
  <defs id="SvgjsDefs2326"></defs>
  <g id="SvgjsG2327" featurekey="JKiIdh-0" transform="matrix(1.9844853,0,0,1.9844853,0.00178325,-28.939749)" fill="#0092ca" style="fill:#393e46;fill-opacity:1">
    <g id="g13" style="fill:#393e46;fill-opacity:1">
      <path d="m 50.39,50.4 c 0,0 -2.547,-8.199 -8.847,-14.646 C 39.772,33.837 35.016,32.009 31.735,34.772 26.071,39.538 26.071,50.4 26.071,50.4 Z" id="path3" style="fill:#393e46;fill-opacity:1"></path>
      <path d="m 22.859,50.385 c -0.022,-2.965 -2.43,-5.362 -5.4,-5.362 -2.401,0 -4.411,1.577 -5.113,3.743 L 2.852,48.768 C 2.764,48.768 2.313,48.751 1.927,48.413 1.567,48.099 1.613,47.702 1.65,47.384 1.657,47.319 1.664,47.259 1.658,47.259 L 1.657,47.26 C 3.228,41.893 6.818,33.532 7.195,32.815 7.317,32.606 7.629,32.373 7.935,32.26 l 0.286,-0.086 0.035,0.179 c 1.685,8.027 3.381,10.805 3.455,10.921 l 0.188,0.302 2.267,-0.471 L 8.896,17.667 6.597,18.144 6.57,18.53 c -0.01,0.146 -0.229,3.638 1.225,11.43 -0.001,10e-4 -0.002,10e-4 -0.003,0.002 l 0.082,0.423 -0.359,0.14 C 6.951,30.756 6.47,31.111 6,31.641 5.512,32.186 2.011,40.271 0.079,46.87 c -0.014,0.052 -0.025,0.105 -0.036,0.204 -0.138,0.921 0.05,1.703 0.555,2.322 0.793,0.968 2.081,0.996 2.224,0.996 l 11.702,-0.003 v -0.005 h 8.335 z" id="path5" style="fill:#393e46;fill-opacity:1"></path>
      <g id="g11" style="fill:#393e46;fill-opacity:1">
        <path d="m 30.14,17.512 0.772,3.93 c 1.424,0.338 2.486,1.61 2.486,3.139 0,1.786 -1.448,3.233 -3.233,3.233 -1.785,0 -3.234,-1.447 -3.234,-3.233 0,-1.095 0.549,-2.059 1.38,-2.644 l -0.838,-4.272 c -3.393,0.796 -5.93,3.84 -5.93,7.485 0,4.238 3.448,7.683 7.684,7.683 4.255,0 7.697,-3.445 7.697,-7.683 0,-3.945 -2.96,-7.187 -6.784,-7.638 z" id="path7" style="fill:#393e46;fill-opacity:1"></path>
        <path d="m 29.227,17.453 c 0.31,0 0.613,0.024 0.913,0.059 l -0.568,-2.929 -2.598,0.508 0.498,2.572 c 0.565,-0.132 1.151,-0.21 1.755,-0.21 z" id="path9" style="fill:#393e46;fill-opacity:1"></path>
      </g>
    </g>
  </g>
</svg></svg></g></svg>